<?xml version="1.0" encoding="utf-8"?>
<!-- Generator: Adobe Illustrator 28.1.0, SVG Export Plug-In . SVG Version: 6.00 Build 0)  -->
<svg version="1.1" id="Calque_1" xmlns="http://www.w3.org/2000/svg" xmlns:xlink="http://www.w3.org/1999/xlink" x="0px" y="0px"
	 viewBox="0 0 265.74 80" style="enable-background:new 0 0 265.74 80;" xml:space="preserve">
<style type="text/css">
	.st0{fill:#EEF0F4;}
	.st1{fill:#FFFFFF;stroke:#0E111B;stroke-width:0.9299;stroke-miterlimit:10;}
	.st2{fill:none;stroke:#0E111B;stroke-width:0.5;stroke-miterlimit:10;}
	.st3{fill:none;stroke:#0E111B;stroke-width:0.5069;stroke-miterlimit:10;}
	.st4{fill:#1D1D1B;}
	.st5{fill:none;stroke:#FFFFFF;stroke-width:2.7252;stroke-linecap:round;stroke-miterlimit:10;}
	.st6{fill:#FFFFFF;}
	.st7{fill:none;stroke:#FFFFFF;stroke-width:2;stroke-miterlimit:10;}
	.st8{fill:#0E111B;}
	.st9{fill:#EEF0F3;}
	.st10{fill:#00141B;}
	.st11{fill:#634BEE;}
	.st12{fill:#26D18F;}
	.st13{fill:#35405E;}
</style>
<g>
	<rect x="0.06" y="24.48" class="st8" width="6.9" height="30.54"/>
	<rect y="12.6" class="st8" width="6.96" height="7.93"/>
	<path class="st8" d="M29.78,23.74c-4.99,0-7.82,3.14-8.83,6h-0.11v-5.25h-6.9v30.54h6.9V37.3c0-4.09,2.78-6.94,6.77-6.94
		c3.57,0,6.26,2.72,6.26,6.31v18.36h6.9V35.02C40.76,29.58,37.33,23.74,29.78,23.74z"/>
	<path class="st8" d="M59.41,29.78c3.16,0,5.51,1.76,5.98,4.48l0.11,0.64l6.26-1.69l-0.12-0.55c-1.21-5.5-5.89-8.92-12.23-8.92
		c-6.94,0-11.79,3.77-11.79,9.16c0,4.73,2.89,7.75,8.58,8.98l5.08,1.08c3.28,0.72,3.7,2.08,3.7,3.19c0,2.13-2.29,3.46-5.97,3.46
		c-3.67,0-6.16-1.77-6.84-4.84l-0.13-0.6l-6.36,1.68l0.13,0.56c1.39,5.86,6.26,9.37,13.03,9.37c7.82,0,12.87-3.78,12.87-9.62
		c0-4.75-3.03-7.91-8.75-9.15l-4.97-1.09c-3.28-0.68-3.7-1.97-3.7-3.02C54.3,31.07,56.4,29.78,59.41,29.78z"/>
	<path class="st8" d="M105.42,38.92c0.14-4.26-1.26-8.16-3.97-10.97c-2.66-2.76-6.28-4.21-10.52-4.21
		c-8.83,0-15.25,6.66-15.25,15.85c0,9.52,6.33,16.18,15.37,16.18c5.64,0,10.35-2.52,12.97-6.92l0.29-0.48l-5.21-3.38l-0.31,0.5
		c-1.67,2.62-4.43,4.07-7.73,4.07c-4.54,0-7.59-2.66-8.45-7.33h22.68L105.42,38.92z M82.79,36.24c1.07-4.12,4.02-6.45,8.14-6.45
		c4.09,0,7.3,2.74,7.71,6.45H82.79z"/>
	<path class="st8" d="M117.4,30.71h-0.17v-6.22h-6.84v30.54h6.9V39.64c0-3.86,2.13-8.37,8.14-8.37h2.54v-7.3h-0.59
		C121.74,23.97,118.56,27.37,117.4,30.71z"/>
	<path class="st8" d="M142.02,30.53v15.68c0,1.74,0.79,2.55,2.43,2.55h5.92v6.28h-6.66c-5.38,0-8.59-3.19-8.59-8.54V30.53h-5.14
		v-6.04h11.14l-5.85-8.71h6.76v8.71h8.73v6.04H142.02z"/>
	<path class="st8" d="M176.49,33.36l-6.02,3.14l-0.21-0.67c-0.88-2.71-3.78-5.64-8.11-5.64c-2.69,0-4.97,1.09-6.57,2.93v-8.04
		c1.97-0.86,4.19-1.33,6.57-1.33c6.54,0,11.83,3.4,14.13,9.11L176.49,33.36z"/>
	<path class="st8" d="M176.87,45.49l-0.19,0.52c-2.21,6.19-7.52,9.76-14.54,9.76c-2.38,0-4.59-0.45-6.57-1.28v-8.04
		c1.55,1.81,3.85,2.88,6.57,2.88c4.07,0,7.28-2.24,8.57-6l0.21-0.62L176.87,45.49z"/>
	<path class="st8" d="M197.6,23.74c-4.18,0-7.62,2.34-8.89,6h-0.11V11.01h-6.9v44.02h6.9V37.3c0-4.09,2.81-6.94,6.83-6.94
		c3.63,0,6.37,2.72,6.37,6.31v18.36h6.9V35.02C208.7,29.58,205.22,23.74,197.6,23.74z"/>
	<path class="st8" d="M241.61,49.16c-0.76,0-0.88-0.24-0.88-0.79V35.76c0-5.78-4.09-12.02-13.11-12.02
		c-6.26,0-10.99,3.43-12.33,8.97l-0.14,0.55l6.28,1.76l0.1-0.67c0.36-2.05,2.14-4.45,6.09-4.45c3.78,0,6.33,2.36,6.33,5.85v0.19
		h-8.61c-6.76,0-11.33,3.95-11.33,9.8c0,5.9,4.57,10.02,11.11,10.02c4.73,0,8.28-2.38,9.33-6.23h0.07v0.62
		c0,2.95,2.02,4.88,5.16,4.88h3.45v-5.88H241.61z M233.95,41.88c0,3.81-2.05,7.9-7.76,7.9c-2.5,0-5.21-1.28-5.21-4.14
		c0-2.5,1.86-3.97,5-3.97h7.97V41.88z"/>
	<path class="st8" d="M257.01,30.53v15.68c0,1.74,0.76,2.55,2.43,2.55h5.9v6.28h-6.64c-5.38,0-8.59-3.19-8.59-8.54V30.53h-5.14
		v-6.04h11.14l-5.85-8.71h6.76v8.71h8.73v6.04H257.01z"/>
	<rect x="154.74" class="st8" width="1.67" height="80"/>
</g>
</svg>
